<?xml version="1.0" standalone="no"?>
<!DOCTYPE svg PUBLIC "-//W3C//DTD SVG 20010904//EN"
 "http://www.w3.org/TR/2001/REC-SVG-20010904/DTD/svg10.dtd">
<svg version="1.0" xmlns="http://www.w3.org/2000/svg"
 width="2908.000000pt" height="3230.000000pt" viewBox="0 0 2908.000000 3230.000000"
 preserveAspectRatio="xMidYMid meet">

<g transform="translate(0.000000,3230.000000) scale(0.100000,-0.100000)"
fill="#000000" stroke="none">
<path d="M14030 32294 c-36 -2 -159 -8 -275 -14 -2657 -135 -5311 -1044 -7515
-2575 -1017 -706 -1945 -1544 -2756 -2488 -992 -1154 -1804 -2476 -2394 -3897
-463 -1115 -771 -2237 -962 -3503 l-43 -282 0 -3385 0 -3385 43 -282 c286
-1897 865 -3571 1794 -5193 808 -1409 1885 -2707 3141 -3786 1154 -992 2476
-1804 3897 -2394 1376 -571 2871 -935 4350 -1059 466 -39 636 -46 1230 -46
594 0 764 7 1230 46 2523 211 4990 1099 7070 2544 1017 706 1945 1544 2756
2488 992 1154 1804 2476 2394 3897 603 1453 959 2969 1075 4577 23 318 23
4868 0 5186 -161 2243 -796 4328 -1907 6267 -808 1409 -1885 2707 -3141 3786
-1154 992 -2476 1804 -3897 2394 -1109 460 -2304 789 -3490 960 -433 62 -799
100 -1280 131 -158 10 -1185 20 -1320 13z m10217 -5588 c39 -14 80 -29 90 -34
10 -5 45 -22 77 -38 91 -45 110 -56 119 -71 4 -7 13 -13 19 -13 6 0 34 -20 63
-44 129 -111 209 -204 284 -333 22 -40 46 -75 51 -78 6 -3 10 -14 10 -23 1 -9
9 -35 20 -57 11 -22 19 -45 20 -51 0 -6 9 -38 19 -71 11 -33 24 -109 30 -168
15 -152 16 -18515 0 -18671 -14 -148 -75 -351 -120 -399 -10 -12 -24 -35 -30
-53 -6 -18 -15 -32 -20 -32 -5 0 -9 -5 -9 -12 0 -17 -77 -117 -137 -176 -29
-29 -53 -57 -53 -61 0 -5 -15 -18 -32 -30 -46 -29 -158 -107 -190 -131 -14
-11 -33 -20 -41 -20 -8 0 -20 -7 -27 -15 -7 -8 -30 -18 -51 -21 -21 -4 -44
-12 -50 -20 -6 -7 -32 -16 -57 -20 -26 -4 -56 -11 -66 -16 -75 -39 255 -38
-9475 -38 -6802 0 -9341 3 -9385 11 -34 6 -72 17 -86 24 -14 7 -46 16 -72 19
-25 4 -52 14 -58 21 -7 8 -25 15 -40 15 -15 0 -39 9 -53 20 -14 11 -31 20 -37
20 -7 0 -44 21 -82 47 -38 27 -80 54 -93 61 -24 13 -195 180 -195 190 0 3 -7
12 -15 21 -32 34 -65 79 -65 89 0 6 -6 15 -13 19 -15 9 -97 174 -97 195 0 8
-4 18 -10 24 -5 5 -17 38 -27 74 -17 62 -18 477 -21 9510 l-2 9445 21 79 c11
44 24 86 29 95 4 9 17 40 28 68 24 63 111 213 123 213 5 0 9 5 9 12 0 6 6 18
14 27 34 40 195 201 200 201 4 0 29 18 57 40 28 22 57 40 64 40 7 0 18 6 24
14 17 20 124 71 191 90 30 9 62 21 70 26 10 6 3396 10 9510 10 l9495 0 72 -24z"/>
<path d="M5365 26423 c-80 -16 -156 -38 -191 -54 -22 -11 -45 -19 -50 -19 -6
0 -21 -11 -34 -25 -13 -14 -28 -25 -34 -25 -38 0 -222 -173 -257 -241 -11 -22
-26 -42 -34 -45 -8 -3 -17 -18 -20 -34 -3 -16 -13 -34 -21 -41 -8 -6 -14 -20
-14 -31 0 -11 -9 -40 -19 -66 -11 -26 -25 -85 -30 -131 -15 -118 -15 -18537 0
-18648 11 -81 44 -190 78 -256 35 -68 151 -213 200 -250 26 -20 59 -47 72 -59
35 -32 160 -92 249 -120 l75 -23 9360 0 9360 0 80 28 c105 37 177 72 200 97
10 11 24 20 31 20 24 0 190 174 227 238 20 35 37 65 37 68 0 3 9 17 20 31 11
14 20 37 20 51 0 14 7 33 15 42 41 45 40 -190 40 9460 0 9673 1 9394 -40 9453
-8 12 -15 30 -15 40 0 10 -18 49 -40 86 -22 37 -40 71 -40 76 0 26 -159 189
-222 226 -22 13 -54 36 -72 51 -18 15 -45 30 -62 34 -16 4 -38 13 -49 20 -11
6 -61 21 -111 33 l-91 21 -9299 -1 c-5115 -1 -9308 -3 -9319 -6z m17389 -1489
c26 -10 18 -39 -16 -67 -82 -65 -252 -208 -293 -246 -16 -15 -55 -47 -84 -72
-30 -24 -77 -65 -105 -91 -27 -27 -52 -48 -56 -48 -4 0 -18 -10 -32 -22 -14
-13 -48 -44 -77 -70 -28 -27 -54 -48 -56 -48 -2 0 -29 -25 -62 -55 -32 -30
-61 -55 -64 -55 -4 0 -31 -23 -60 -50 -30 -28 -66 -57 -81 -65 -15 -8 -29 -23
-33 -32 -3 -10 -33 -40 -67 -66 -81 -63 -177 -148 -249 -219 -32 -32 -61 -58
-66 -58 -5 0 -36 -26 -70 -57 -90 -85 -200 -184 -268 -244 -33 -29 -64 -60
-69 -70 -4 -10 -19 -20 -32 -23 -13 -4 -24 -13 -24 -21 0 -8 -5 -15 -11 -15
-6 0 -30 -19 -53 -42 -40 -40 -180 -170 -300 -278 -27 -25 -73 -69 -102 -97
-29 -29 -54 -53 -57 -53 -3 0 -36 -30 -75 -67 -38 -38 -80 -77 -93 -89 -13
-11 -45 -44 -71 -72 -26 -29 -50 -52 -53 -52 -3 0 -38 -33 -78 -72 -40 -40
-136 -134 -214 -208 -79 -74 -266 -258 -418 -407 -151 -150 -278 -273 -280
-273 -3 0 -20 -16 -38 -37 -47 -53 -161 -163 -169 -163 -5 0 -8 -5 -8 -10 0
-6 -123 -134 -272 -285 -150 -151 -334 -338 -408 -417 -74 -78 -169 -177 -210
-220 -41 -42 -122 -127 -180 -189 -58 -61 -134 -141 -170 -178 -36 -37 -105
-111 -154 -166 -48 -55 -118 -132 -155 -170 -36 -39 -96 -104 -133 -145 -77
-86 -172 -188 -253 -274 -30 -33 -55 -61 -55 -63 0 -7 -69 -81 -112 -121 -21
-20 -38 -40 -38 -45 0 -5 -16 -24 -35 -43 -19 -18 -35 -35 -35 -38 0 -3 -24
-30 -52 -60 -108 -111 -158 -167 -158 -175 0 -5 -30 -40 -67 -79 -94 -99 -165
-179 -177 -199 -5 -9 -24 -32 -43 -50 -18 -19 -33 -36 -33 -38 0 -2 -10 -15
-22 -28 -58 -60 -107 -116 -138 -156 -19 -25 -55 -66 -80 -92 -25 -26 -52 -57
-60 -70 -8 -13 -29 -37 -45 -54 -17 -16 -44 -48 -60 -70 -17 -22 -49 -60 -72
-85 -24 -25 -64 -72 -90 -105 -27 -33 -60 -73 -73 -89 -14 -15 -41 -47 -61
-70 -19 -22 -43 -52 -52 -65 -9 -14 -34 -43 -55 -65 -21 -23 -51 -59 -67 -81
-17 -22 -41 -51 -55 -65 -14 -14 -34 -38 -45 -53 -31 -44 -67 -89 -104 -127
-19 -19 -41 -46 -50 -60 -19 -29 -57 -75 -87 -104 -12 -12 -23 -26 -25 -32 -4
-11 -53 -73 -89 -113 -8 -9 -28 -35 -45 -56 -44 -60 -48 -65 -67 -83 -10 -9
-18 -22 -18 -29 0 -7 -14 -22 -30 -35 -16 -12 -30 -25 -30 -29 0 -3 -16 -24
-35 -45 -19 -21 -35 -44 -35 -50 0 -7 -6 -17 -14 -21 -16 -9 -106 -123 -106
-133 0 -4 -22 -30 -50 -59 -27 -29 -50 -58 -50 -66 0 -7 -4 -15 -9 -17 -11 -4
-102 -114 -126 -153 -11 -16 -25 -34 -32 -38 -7 -4 -13 -15 -13 -22 0 -8 -5
-15 -11 -15 -5 0 -15 -13 -20 -30 -6 -16 -17 -30 -25 -30 -7 0 -25 -17 -39
-37 -62 -91 -92 -132 -120 -165 -16 -19 -37 -45 -45 -58 -24 -36 -53 -71 -82
-99 -16 -14 -28 -30 -28 -36 0 -6 -13 -27 -30 -45 -16 -18 -30 -37 -30 -42 0
-8 -13 -24 -61 -78 -16 -17 -29 -36 -29 -41 0 -5 -6 -12 -14 -15 -8 -3 -20
-19 -26 -35 -7 -16 -16 -29 -20 -29 -4 0 -13 -13 -20 -29 -6 -16 -17 -32 -24
-34 -10 -4 -85 -107 -121 -166 -5 -9 -15 -20 -22 -24 -7 -4 -29 -33 -50 -65
-21 -31 -41 -58 -45 -60 -4 -2 -18 -21 -30 -43 -12 -21 -25 -39 -30 -39 -4 0
-17 -18 -28 -40 -11 -22 -25 -40 -30 -40 -6 0 -10 -4 -10 -9 0 -14 -52 -91
-61 -91 -8 0 -89 -114 -89 -125 0 -3 -5 -11 -10 -18 -24 -29 -46 -57 -60 -77
-8 -13 -25 -35 -37 -50 -13 -15 -23 -33 -23 -39 0 -5 -9 -15 -20 -21 -11 -6
-20 -18 -20 -28 0 -9 -11 -27 -23 -39 -13 -12 -35 -39 -48 -60 -84 -127 -103
-152 -115 -157 -8 -3 -14 -11 -14 -17 0 -15 -61 -109 -72 -109 -4 0 -8 -6 -8
-14 0 -8 -18 -36 -40 -62 -22 -27 -40 -54 -40 -60 0 -7 -7 -14 -15 -18 -8 -3
-15 -12 -15 -21 0 -8 -4 -15 -9 -15 -5 0 -14 -13 -21 -29 -6 -16 -25 -41 -41
-57 -16 -15 -29 -33 -29 -40 0 -7 -6 -17 -13 -21 -7 -4 -18 -19 -25 -33 -27
-52 -48 -87 -60 -101 -7 -7 -32 -43 -55 -79 -23 -36 -47 -71 -54 -78 -7 -7
-13 -17 -13 -22 0 -11 -43 -78 -68 -105 -23 -25 -58 -80 -111 -172 -23 -40
-46 -73 -51 -73 -6 0 -10 -7 -10 -15 0 -8 -9 -23 -20 -32 -11 -10 -20 -23 -20
-30 0 -13 -40 -78 -63 -103 -8 -8 -24 -34 -36 -57 -12 -24 -23 -43 -25 -43
-16 0 -36 14 -36 25 0 7 -6 18 -14 24 -8 7 -17 24 -21 39 -3 15 -15 36 -25 47
-10 11 -33 47 -50 80 -18 33 -49 89 -68 125 -19 36 -55 101 -79 145 -24 44
-51 96 -59 115 -9 19 -22 42 -29 50 -15 18 -41 62 -108 190 -28 52 -54 97 -58
100 -4 3 -13 17 -18 30 -6 14 -15 32 -21 40 -5 8 -15 26 -21 40 -18 43 -41 84
-59 105 -9 11 -31 47 -47 80 -52 104 -103 198 -115 213 -16 19 -35 51 -48 82
-5 14 -15 32 -20 40 -6 8 -17 29 -25 45 -9 17 -25 46 -37 65 -11 19 -43 78
-71 130 -27 52 -55 102 -62 110 -16 18 -53 84 -95 170 -18 36 -35 67 -39 70
-4 3 -10 12 -14 20 -4 8 -11 22 -17 30 -5 8 -15 26 -21 40 -5 14 -21 43 -34
65 -13 22 -31 56 -40 75 -9 19 -24 44 -34 55 -10 11 -25 34 -33 50 -42 84
-110 211 -121 223 -14 18 -33 49 -48 82 -6 14 -15 32 -20 40 -5 8 -15 26 -21
40 -7 14 -18 29 -25 33 -7 4 -13 17 -13 27 0 10 -4 22 -10 25 -5 3 -29 45 -52
93 -24 48 -60 114 -80 146 -21 33 -38 65 -38 71 0 7 -7 15 -15 19 -8 3 -15 14
-15 24 0 11 -6 25 -14 31 -8 7 -17 24 -21 39 -4 15 -13 34 -21 44 -18 19 -59
93 -109 195 -19 40 -44 80 -54 90 -10 10 -22 29 -26 43 -4 13 -15 36 -24 50
-28 42 -40 64 -56 98 -8 18 -23 46 -34 61 -11 15 -42 70 -68 122 -27 52 -60
112 -74 134 -43 69 -48 79 -76 135 -68 140 -162 259 -349 445 -135 135 -210
202 -273 245 -20 14 -40 31 -44 38 -4 6 -13 12 -19 12 -6 0 -20 7 -30 17 -19
17 -44 32 -88 55 -14 7 -31 20 -37 29 -14 18 -333 179 -355 179 -7 0 -30 9
-51 20 -20 11 -46 20 -57 20 -11 0 -37 9 -57 20 -21 11 -51 20 -68 20 -16 0
-42 6 -57 14 -35 19 -136 43 -228 55 -41 6 -106 15 -145 20 -195 26 -526 22
-745 -10 -203 -30 -267 -41 -319 -59 -31 -11 -85 -21 -121 -22 l-65 -3 -3
3464 c-1 2552 1 3467 9 3477 10 12 1340 14 8294 14 4556 0 8290 -3 8299 -6z
m474 -9741 l2 -7341 -22 -6 c-13 -3 -2659 -6 -5881 -6 -5402 0 -5858 1 -5864
16 -7 20 13 37 104 84 84 43 155 89 166 107 4 7 15 13 23 13 8 0 27 8 42 18
47 31 66 42 102 58 19 9 37 20 40 24 7 10 150 90 161 90 5 0 9 4 9 9 0 5 14
14 31 22 18 7 43 23 57 36 14 13 29 23 33 23 5 0 33 16 64 35 30 20 63 38 73
42 9 3 38 21 65 40 26 18 52 33 58 33 6 0 22 9 36 20 14 11 31 20 38 20 7 0
15 6 18 14 3 7 18 17 33 20 15 4 39 16 52 27 14 10 29 19 34 19 5 0 19 10 31
21 12 12 36 28 52 35 17 8 48 26 70 39 22 14 58 33 80 43 22 10 47 26 55 34
15 15 50 35 106 62 17 8 36 22 44 30 7 9 16 16 21 16 5 0 49 25 99 55 50 30
97 55 105 55 8 0 15 4 15 9 0 5 9 12 19 16 18 5 61 73 61 96 0 6 11 35 25 65
14 30 39 91 55 137 17 45 37 96 45 112 7 17 19 47 25 67 6 20 19 47 29 60 10
13 21 34 25 48 19 66 122 308 166 392 11 20 20 43 20 50 0 15 41 104 85 186 8
15 24 50 36 77 12 28 32 74 45 103 13 29 24 56 24 61 0 4 11 24 24 44 13 19
27 49 31 65 3 17 13 36 21 43 8 6 14 19 14 29 0 9 9 29 20 43 11 14 20 34 20
44 0 11 13 37 29 59 16 21 32 50 36 64 4 14 25 60 46 103 22 43 39 85 39 93 0
8 5 14 10 14 6 0 10 7 10 15 0 9 6 18 14 21 8 3 18 20 22 37 3 18 12 39 19 47
7 8 16 26 20 40 4 14 13 32 20 40 7 8 16 26 20 40 4 14 13 32 20 40 6 8 34 59
60 113 27 54 52 100 57 103 4 3 8 15 8 27 0 12 10 33 23 47 12 14 51 81 86
150 34 69 69 132 75 140 7 8 27 45 45 82 17 37 36 70 41 73 6 4 10 13 10 22 0
9 9 26 19 37 11 12 43 66 72 121 29 55 67 123 86 151 18 28 33 56 33 61 0 6 6
16 14 22 8 7 18 25 21 41 3 16 13 31 21 34 8 3 14 14 14 25 0 11 10 32 23 48
28 33 137 225 137 239 0 6 11 21 25 34 14 13 25 29 25 35 0 7 9 22 20 35 11
13 20 31 20 42 0 10 4 18 10 18 5 0 17 15 25 33 8 17 40 70 69 117 30 47 64
104 75 128 11 23 27 45 35 48 8 3 20 20 27 37 7 18 27 52 44 77 17 25 34 52
38 60 4 8 16 29 27 45 11 17 27 44 36 60 9 17 20 32 24 35 4 3 22 31 39 62 18
31 39 62 47 69 8 7 31 42 51 78 21 36 56 93 80 126 24 32 43 63 43 67 0 4 15
27 33 52 17 24 40 56 49 72 10 16 31 47 48 69 17 22 39 59 50 83 11 23 24 42
29 42 5 0 11 8 14 18 4 9 31 51 62 92 31 41 62 89 70 107 8 17 19 34 25 38 11
7 130 185 130 196 0 3 7 12 16 20 8 7 32 38 52 68 20 31 40 58 45 59 4 2 14
18 21 35 7 18 25 45 40 60 14 15 26 30 26 32 0 11 105 157 116 162 7 3 16 15
20 26 4 12 13 29 21 37 33 36 174 238 200 288 9 17 22 32 29 32 6 0 35 36 63
79 28 44 66 98 84 120 65 83 77 99 77 110 0 6 4 11 8 11 5 0 24 24 43 53 18
28 46 64 61 79 16 15 28 32 28 37 0 13 109 151 119 151 5 0 11 10 15 23 3 12
21 39 41 60 19 21 35 42 35 48 0 5 8 17 18 27 25 26 83 101 116 150 16 24 35
46 41 50 6 4 38 43 71 87 59 81 141 185 169 218 8 9 15 19 15 22 0 3 13 20 29
38 77 84 101 113 101 122 0 6 18 30 40 53 22 22 40 46 40 52 0 5 4 10 10 10 5
0 16 12 24 28 8 15 33 47 56 72 23 25 55 64 71 88 17 23 42 54 56 70 14 15 62
72 106 127 44 55 83 102 86 105 15 12 91 109 91 116 0 4 15 22 33 39 17 17 48
51 67 75 19 24 53 64 75 89 22 25 43 50 47 56 35 47 101 125 106 125 4 0 15
12 24 28 9 15 33 45 52 67 20 22 46 52 58 67 13 16 41 48 63 73 22 24 56 63
75 86 19 23 45 52 58 64 12 12 22 25 22 29 0 7 12 21 100 115 39 40 70 78 70
83 0 5 19 28 43 52 23 23 56 60 72 80 29 36 50 58 77 83 16 14 34 35 71 83 40
50 142 163 210 232 31 33 57 62 57 66 0 4 32 40 70 80 39 40 70 75 70 78 0 3
26 32 58 64 82 84 186 199 190 211 2 5 32 38 65 73 119 122 204 212 293 311
87 98 223 242 356 377 37 37 69 77 73 88 3 11 12 20 19 20 7 0 39 28 70 63
101 110 317 336 474 496 84 86 156 159 160 163 4 5 27 28 52 52 25 24 63 62
84 85 22 22 43 41 47 41 4 0 11 9 14 20 3 11 13 20 21 20 8 0 14 4 14 9 0 13
257 271 270 271 5 0 10 6 10 13 0 6 28 37 61 67 33 30 150 144 260 253 110
109 205 197 212 194 9 -3 13 -1662 15 -7344z m-17037 379 c24 -16 109 -98 109
-105 0 -4 37 -43 183 -196 37 -39 67 -74 67 -78 0 -3 7 -13 15 -22 72 -76 106
-116 140 -164 22 -31 50 -61 63 -66 12 -6 22 -17 22 -24 0 -7 14 -29 31 -48
17 -19 41 -50 54 -69 12 -19 32 -44 44 -54 11 -11 21 -25 21 -33 0 -7 4 -13 9
-13 5 0 23 -21 40 -47 41 -63 59 -88 99 -130 17 -20 32 -42 32 -50 0 -7 7 -16
15 -19 8 -4 15 -10 15 -14 0 -11 77 -125 95 -140 8 -7 15 -18 15 -26 0 -7 6
-17 14 -21 7 -4 21 -21 30 -38 24 -45 38 -64 69 -99 15 -17 27 -36 27 -42 0
-6 15 -31 34 -55 18 -24 43 -63 55 -86 12 -24 26 -43 31 -43 5 0 17 -15 25
-32 27 -56 48 -92 62 -106 7 -7 13 -20 13 -27 0 -8 6 -18 14 -22 8 -4 45 -62
83 -128 38 -66 81 -137 96 -158 14 -21 35 -57 47 -80 22 -44 30 -57 70 -122
14 -22 33 -56 43 -75 43 -85 84 -158 109 -190 14 -19 29 -46 33 -60 4 -14 10
-27 14 -30 3 -3 21 -36 40 -75 18 -38 44 -83 56 -100 12 -16 26 -41 30 -55 4
-14 13 -32 20 -40 7 -8 16 -30 20 -47 3 -18 11 -33 15 -33 5 0 14 -18 20 -40
6 -22 14 -40 18 -40 8 0 17 -17 86 -158 25 -52 46 -99 46 -106 0 -7 11 -25 25
-41 14 -15 28 -40 32 -56 3 -16 12 -34 19 -40 8 -6 14 -16 14 -21 0 -5 12 -35
26 -66 27 -61 32 -70 56 -117 9 -16 25 -50 36 -75 62 -141 74 -168 87 -192 31
-58 63 -126 98 -208 8 -19 26 -60 40 -90 14 -30 33 -75 43 -100 10 -25 23 -54
31 -65 7 -11 13 -26 13 -34 0 -7 9 -33 20 -57 11 -24 29 -64 41 -89 11 -24 24
-47 30 -50 5 -4 9 -14 9 -23 0 -9 6 -29 14 -44 8 -14 19 -43 26 -65 7 -21 16
-42 20 -48 4 -5 13 -28 20 -50 7 -22 26 -67 41 -101 16 -34 29 -68 29 -77 0
-9 4 -19 10 -22 5 -3 17 -30 26 -60 8 -30 19 -57 24 -60 4 -3 11 -23 15 -45 4
-22 10 -40 14 -40 7 0 48 -101 108 -265 42 -115 56 -149 70 -166 7 -8 13 -30
13 -47 0 -17 7 -38 16 -46 8 -9 18 -33 21 -53 3 -21 11 -45 18 -53 7 -8 16
-31 20 -50 4 -19 13 -46 20 -60 21 -40 55 -131 55 -146 0 -8 4 -22 9 -32 6 -9
24 -60 41 -112 17 -52 35 -103 40 -112 6 -10 10 -24 10 -32 0 -7 6 -19 14 -25
7 -6 16 -29 20 -50 3 -21 13 -51 21 -67 8 -16 15 -38 15 -49 0 -11 6 -32 14
-46 7 -14 16 -39 20 -55 3 -16 22 -74 42 -129 19 -55 40 -113 45 -130 6 -16
15 -50 21 -75 6 -25 14 -50 19 -56 5 -6 13 -34 20 -62 6 -29 21 -71 33 -95 13
-23 26 -60 30 -82 4 -22 14 -53 21 -70 7 -16 16 -48 20 -70 4 -21 13 -52 21
-68 9 -15 14 -40 12 -55 l-3 -27 -2005 0 -2005 0 -8 3840 c-5 2112 -5 3855 -2
3873 7 37 11 38 46 14z"/>
</g>
</svg>
